<svg xmlns="http://www.w3.org/2000/svg" width="100%" height="100%" viewBox="0 0 1024 500">
  <defs>
    <linearGradient id="feature-bg" x1="40" y1="20" x2="984" y2="480" gradientUnits="userSpaceOnUse">
      <stop stop-color="#08172F"/>
      <stop offset=".58" stop-color="#0B315D"/>
      <stop offset="1" stop-color="#0E536D"/>
    </linearGradient>
    <pattern id="grid" width="42" height="42" patternUnits="userSpaceOnUse">
      <path d="M42 0H0V42" fill="none" stroke="#59E1D1" stroke-opacity=".1"/>
    </pattern>
  </defs>
  <path fill="url(#feature-bg)" d="M0 0h1024v500H0z"/>
  <path fill="url(#grid)" d="M0 0h1024v500H0z"/>
  <g transform="translate(12 40) scale(.42)">
    <g fill="none" stroke-linecap="round" stroke-linejoin="round">
      <path d="M270 652H758V846H270Z" stroke="#F6F9FF" stroke-width="48"/>
      <path d="M758 652V358" stroke="#F6F9FF" stroke-width="56"/>
      <path d="M704 246H812M758 192V300" stroke="#F6F9FF" stroke-width="48"/>
      <path d="M270 652C392 613 485 532 548 430C592 359 621 284 642 204" stroke="#F6F9FF" stroke-width="54"/>
      <path d="M220 420H657M625 388L657 420L625 452" stroke="#59E1D1" stroke-width="28"/>
    </g>
    <circle cx="554" cy="420" r="30" fill="#FF7A66"/>
  </g>
  <g fill="none" stroke-linecap="round" stroke-linejoin="round">
    <path d="M450 354H950M535 420V78" stroke="#59E1D1" stroke-opacity=".42" stroke-width="2"/>
    <path d="m938 346 12 8-12 8M527 90l8-12 8 12" stroke="#59E1D1" stroke-opacity=".42" stroke-width="2"/>
    <path d="M444 392C528 374 584 314 624 252c42-66 84-86 126-58 50 34 77 123 184 62" stroke="#59E1D1" stroke-width="5"/>
    <path d="M470 414c92-10 140-48 185-98 57-63 100-46 140-1 33 36 74 38 138-30" stroke="#fff" stroke-opacity=".22" stroke-width="2" stroke-dasharray="7 10"/>
  </g>
  <g fill="#FF7A66">
    <circle cx="624" cy="252" r="7"/>
    <circle cx="750" cy="194" r="5" opacity=".7"/>
  </g>
  <g fill="#59E1D1">
    <circle cx="535" cy="354" r="5"/>
    <circle cx="845" cy="304" r="5"/>
  </g>
</svg>
