<svg xmlns="http://www.w3.org/2000/svg" width="100%" height="100%" viewBox="0 0 1024 500">
  <defs>
    <pattern id="grid" width="42" height="42" patternUnits="userSpaceOnUse">
      <path d="M42 0H0V42" fill="none" stroke="#147DFF" stroke-opacity=".13"/>
    </pattern>
  </defs>
  <path fill="#061A3A" d="M0 0h1024v500H0z"/>
  <path fill="url(#grid)" d="M0 0h1024v500H0z"/>
  <g transform="translate(12 40) scale(.42)">
    <g fill="none" stroke="#fff" stroke-linecap="round" stroke-linejoin="round">
      <path d="M250 650C420 580 505 445 540 335C558 278 568 218 578 160" stroke-width="46"/>
      <path d="M145 335H735M700 300L735 335L700 370" stroke-width="28"/>
      <path d="M250 650H790V900H250Z" stroke-width="46"/>
      <path d="M790 650V330" stroke-width="58"/>
      <path d="M735 220H845M790 165V275" stroke-width="54"/>
      <path d="M575 785H665M575 840H665" stroke-width="34"/>
    </g>
    <circle cx="540" cy="335" r="32" fill="#F5222D"/>
  </g>
  <g fill="none" stroke-linecap="round" stroke-linejoin="round">
    <path d="M450 354H950M535 420V78" stroke="#147DFF" stroke-opacity=".48" stroke-width="2"/>
    <path d="m938 346 12 8-12 8M527 90l8-12 8 12" stroke="#147DFF" stroke-opacity=".48" stroke-width="2"/>
    <path d="M444 392C528 374 584 314 624 252c42-66 84-86 126-58 50 34 77 123 184 62" stroke="#147DFF" stroke-width="5"/>
    <path d="M470 414c92-10 140-48 185-98 57-63 100-46 140-1 33 36 74 38 138-30" stroke="#fff" stroke-opacity=".22" stroke-width="2" stroke-dasharray="7 10"/>
  </g>
  <g fill="#F5222D">
    <circle cx="624" cy="252" r="7"/>
    <circle cx="750" cy="194" r="5" opacity=".7"/>
  </g>
  <g fill="#147DFF">
    <circle cx="535" cy="354" r="5"/>
    <circle cx="845" cy="304" r="5"/>
  </g>
</svg>
